<svg width="526" height="104" viewBox="0 0 526 104" fill="none" xmlns="http://www.w3.org/2000/svg">
<path d="M339.378 0L353.668 14.1421L267.93 98.9949L253.64 84.8528L339.378 0Z" fill="#70DA1C"/>
<path d="M362.047 4.94971L376.337 19.0918L290.599 103.945L276.309 89.8025L362.047 4.94971Z" fill="#CCF235"/>
<path d="M23.392 29.432V65H17.392L17.008 61.88C15.216 64.472 12.784 65.768 9.712 65.768C6.576 65.768 4.176 64.568 2.512 62.168C0.879995 59.736 0.0639954 56.44 0.0639954 52.28C0.0639954 49.656 0.479995 47.336 1.312 45.32C2.176 43.272 3.392 41.672 4.96 40.52C6.528 39.368 8.336 38.792 10.384 38.792C12.752 38.792 14.816 39.64 16.576 41.336V28.664L23.392 29.432ZM11.728 60.68C12.72 60.68 13.6 60.44 14.368 59.96C15.136 59.448 15.872 58.664 16.576 57.608V46.232C15.904 45.432 15.216 44.84 14.512 44.456C13.84 44.04 13.056 43.832 12.16 43.832C10.592 43.832 9.36 44.52 8.464 45.896C7.6 47.272 7.168 49.4 7.168 52.28C7.168 55.32 7.552 57.48 8.32 58.76C9.12 60.04 10.256 60.68 11.728 60.68Z" fill="#141414"/>
<path d="M51.5984 51.704C51.5984 52.024 51.5504 52.904 51.4544 54.344H35.5664C35.7904 56.648 36.4144 58.28 37.4384 59.24C38.4624 60.2 39.8544 60.68 41.6144 60.68C42.7024 60.68 43.7264 60.504 44.6864 60.152C45.6464 59.8 46.6864 59.24 47.8064 58.472L50.6384 62.312C47.7904 64.616 44.5744 65.768 40.9904 65.768C36.9904 65.768 33.9184 64.568 31.7744 62.168C29.6304 59.768 28.5584 56.52 28.5584 52.424C28.5584 49.832 29.0064 47.512 29.9024 45.464C30.8304 43.384 32.1584 41.752 33.8864 40.568C35.6464 39.384 37.7264 38.792 40.1264 38.792C43.7424 38.792 46.5584 39.928 48.5744 42.2C50.5904 44.472 51.5984 47.64 51.5984 51.704ZM44.8304 49.784C44.8304 45.56 43.3104 43.448 40.2704 43.448C38.8624 43.448 37.7584 43.976 36.9584 45.032C36.1904 46.056 35.7264 47.736 35.5664 50.072H44.8304V49.784Z" fill="#141414"/>
<path d="M77.3237 39.56L69.1637 65H61.0517L52.7477 39.56H60.1397L65.1797 59.672L70.3158 39.56H77.3237Z" fill="#141414"/>
<path d="M101.755 51.704C101.755 52.024 101.707 52.904 101.611 54.344H85.7226C85.9466 56.648 86.5706 58.28 87.5946 59.24C88.6186 60.2 90.0106 60.68 91.7706 60.68C92.8586 60.68 93.8826 60.504 94.8426 60.152C95.8026 59.8 96.8426 59.24 97.9626 58.472L100.795 62.312C97.9466 64.616 94.7306 65.768 91.1466 65.768C87.1466 65.768 84.0746 64.568 81.9306 62.168C79.7866 59.768 78.7146 56.52 78.7146 52.424C78.7146 49.832 79.1626 47.512 80.0586 45.464C80.9866 43.384 82.3146 41.752 84.0426 40.568C85.8026 39.384 87.8826 38.792 90.2826 38.792C93.8986 38.792 96.7146 39.928 98.7306 42.2C100.747 44.472 101.755 47.64 101.755 51.704ZM94.9866 49.784C94.9866 45.56 93.4666 43.448 90.4266 43.448C89.0186 43.448 87.9146 43.976 87.1146 45.032C86.3466 46.056 85.8826 47.736 85.7226 50.072H94.9866V49.784Z" fill="#141414"/>
<path d="M113.024 65.768C110.944 65.768 109.328 65.176 108.176 63.992C107.024 62.776 106.448 61.064 106.448 58.856V29.432L113.264 28.664V58.664C113.264 59.784 113.728 60.344 114.656 60.344C115.168 60.344 115.616 60.248 116 60.056L117.392 64.904C116.08 65.48 114.624 65.768 113.024 65.768Z" fill="#141414"/>
<path d="M131.361 38.792C135.169 38.792 138.145 39.992 140.289 42.392C142.433 44.76 143.505 48.056 143.505 52.28C143.505 54.968 143.009 57.336 142.017 59.384C141.057 61.4 139.649 62.968 137.793 64.088C135.969 65.208 133.809 65.768 131.313 65.768C127.505 65.768 124.513 64.584 122.337 62.216C120.193 59.816 119.121 56.504 119.121 52.28C119.121 49.592 119.601 47.24 120.561 45.224C121.553 43.176 122.961 41.592 124.785 40.472C126.641 39.352 128.833 38.792 131.361 38.792ZM131.361 43.88C129.633 43.88 128.337 44.568 127.473 45.944C126.641 47.288 126.225 49.4 126.225 52.28C126.225 55.16 126.641 57.288 127.473 58.664C128.337 60.008 129.617 60.68 131.313 60.68C133.009 60.68 134.273 60.008 135.105 58.664C135.969 57.288 136.401 55.16 136.401 52.28C136.401 49.4 135.985 47.288 135.153 45.944C134.321 44.568 133.057 43.88 131.361 43.88Z" fill="#141414"/>
<path d="M162.416 38.792C165.616 38.792 167.984 39.976 169.52 42.344C171.088 44.68 171.872 47.976 171.872 52.232C171.872 54.824 171.472 57.144 170.672 59.192C169.872 61.24 168.704 62.856 167.168 64.04C165.664 65.192 163.872 65.768 161.792 65.768C159.2 65.768 157.104 64.856 155.504 63.032V74.792L148.688 75.56V39.56H154.688L155.024 42.536C155.984 41.288 157.104 40.36 158.384 39.752C159.696 39.112 161.04 38.792 162.416 38.792ZM159.776 60.68C163.104 60.68 164.768 57.88 164.768 52.28C164.768 49.208 164.4 47.032 163.664 45.752C162.928 44.472 161.808 43.832 160.304 43.832C159.344 43.832 158.448 44.136 157.616 44.744C156.816 45.32 156.112 46.104 155.504 47.096V58.184C156.592 59.848 158.016 60.68 159.776 60.68Z" fill="#141414"/>
<path d="M198.786 51.704C198.786 52.024 198.738 52.904 198.642 54.344H182.754C182.978 56.648 183.602 58.28 184.626 59.24C185.65 60.2 187.042 60.68 188.802 60.68C189.89 60.68 190.914 60.504 191.874 60.152C192.834 59.8 193.874 59.24 194.994 58.472L197.826 62.312C194.978 64.616 191.762 65.768 188.178 65.768C184.178 65.768 181.106 64.568 178.962 62.168C176.818 59.768 175.746 56.52 175.746 52.424C175.746 49.832 176.194 47.512 177.09 45.464C178.018 43.384 179.346 41.752 181.074 40.568C182.834 39.384 184.914 38.792 187.314 38.792C190.93 38.792 193.746 39.928 195.762 42.2C197.778 44.472 198.786 47.64 198.786 51.704ZM192.018 49.784C192.018 45.56 190.498 43.448 187.458 43.448C186.05 43.448 184.946 43.976 184.146 45.032C183.378 46.056 182.914 47.736 182.754 50.072H192.018V49.784Z" fill="#141414"/>
<path d="M216.871 38.84C217.639 38.84 218.487 38.968 219.415 39.224L218.263 45.8C217.367 45.576 216.615 45.464 216.007 45.464C214.503 45.464 213.335 45.992 212.503 47.048C211.671 48.104 211.015 49.704 210.535 51.848V65H203.719V39.56H209.623L210.247 44.504C210.855 42.712 211.735 41.32 212.887 40.328C214.071 39.336 215.399 38.84 216.871 38.84Z" fill="#141414"/>
<path d="M251.623 47.336C253.863 47.784 255.671 48.6 257.047 49.784C258.423 50.968 259.111 52.776 259.111 55.208C259.111 58.824 257.799 61.368 255.175 62.84C252.551 64.28 248.887 65 244.183 65H232.951V31.64H242.887C247.687 31.64 251.351 32.312 253.879 33.656C256.439 34.968 257.719 37.16 257.719 40.232C257.719 42.184 257.127 43.752 255.943 44.936C254.791 46.088 253.351 46.888 251.623 47.336ZM241.831 37.832V44.792H244.135C245.703 44.792 246.855 44.504 247.591 43.928C248.327 43.352 248.695 42.424 248.695 41.144C248.695 39.96 248.295 39.112 247.495 38.6C246.727 38.088 245.463 37.832 243.703 37.832H241.831ZM244.231 58.664C246.119 58.664 247.543 58.392 248.503 57.848C249.463 57.272 249.943 56.216 249.943 54.68C249.943 53.208 249.495 52.152 248.599 51.512C247.703 50.84 246.407 50.504 244.711 50.504H241.831V58.664H244.231Z" fill="#141414"/>
<path d="M277.262 38.648C278.094 38.648 278.958 38.792 279.854 39.08L278.462 47.336C277.63 47.08 276.862 46.952 276.158 46.952C274.718 46.952 273.614 47.448 272.846 48.44C272.11 49.4 271.534 50.872 271.118 52.856V65H262.574V39.416H270.014L270.782 44.264C271.294 42.568 272.142 41.208 273.326 40.184C274.542 39.16 275.854 38.648 277.262 38.648Z" fill="#141414"/>
<path d="M301.556 57.128C301.556 58.056 301.668 58.744 301.892 59.192C302.148 59.64 302.58 59.976 303.188 60.2L301.46 65.72C299.828 65.592 298.484 65.256 297.428 64.712C296.404 64.168 295.572 63.304 294.932 62.12C293.3 64.616 290.724 65.864 287.204 65.864C284.676 65.864 282.644 65.128 281.108 63.656C279.604 62.152 278.852 60.216 278.852 57.848C278.852 55.032 279.892 52.872 281.972 51.368C284.052 49.864 287.06 49.112 290.996 49.112H293.204V48.248C293.204 46.872 292.916 45.944 292.34 45.464C291.764 44.952 290.724 44.696 289.22 44.696C288.42 44.696 287.412 44.824 286.196 45.08C285.012 45.304 283.796 45.624 282.548 46.04L280.676 40.52C282.212 39.88 283.86 39.4 285.62 39.08C287.38 38.728 289.012 38.552 290.516 38.552C294.356 38.552 297.156 39.32 298.916 40.856C300.676 42.36 301.556 44.68 301.556 47.816V57.128ZM289.796 59.864C290.5 59.864 291.14 59.688 291.716 59.336C292.324 58.952 292.82 58.44 293.204 57.8V53.672H291.764C290.228 53.672 289.092 53.96 288.356 54.536C287.62 55.08 287.252 55.912 287.252 57.032C287.252 57.896 287.476 58.584 287.924 59.096C288.372 59.608 288.996 59.864 289.796 59.864Z" fill="#141414"/>
<path d="M325.594 39.416V45.416L314.602 58.616H325.93L325.162 65H304.666V59L315.802 45.752H305.626V39.416H325.594Z" fill="#141414"/>
<path d="M337.587 39.416V65H329.043V39.416H337.587ZM333.315 25.64C334.755 25.64 335.923 26.088 336.819 26.984C337.747 27.88 338.211 29 338.211 30.344C338.211 31.688 337.747 32.808 336.819 33.704C335.923 34.6 334.755 35.048 333.315 35.048C331.875 35.048 330.691 34.6 329.763 33.704C328.867 32.808 328.419 31.688 328.419 30.344C328.419 29 328.867 27.88 329.763 26.984C330.691 26.088 331.875 25.64 333.315 25.64Z" fill="#141414"/>
<path d="M349.886 65.864C347.486 65.864 345.63 65.192 344.318 63.848C343.006 62.504 342.35 60.568 342.35 58.04V29.336L350.894 28.472V57.752C350.894 58.68 351.31 59.144 352.142 59.144C352.494 59.144 352.862 59.08 353.246 58.952L354.83 65C353.518 65.576 351.87 65.864 349.886 65.864Z" fill="#141414"/>
<path d="M365.478 39.416V65H356.934V39.416H365.478ZM361.206 25.64C362.646 25.64 363.814 26.088 364.71 26.984C365.638 27.88 366.102 29 366.102 30.344C366.102 31.688 365.638 32.808 364.71 33.704C363.814 34.6 362.646 35.048 361.206 35.048C359.766 35.048 358.582 34.6 357.654 33.704C356.758 32.808 356.31 31.688 356.31 30.344C356.31 29 356.758 27.88 357.654 26.984C358.582 26.088 359.766 25.64 361.206 25.64Z" fill="#141414"/>
<path d="M391.696 57.128C391.696 58.056 391.808 58.744 392.032 59.192C392.288 59.64 392.72 59.976 393.328 60.2L391.6 65.72C389.968 65.592 388.624 65.256 387.568 64.712C386.544 64.168 385.712 63.304 385.072 62.12C383.44 64.616 380.864 65.864 377.344 65.864C374.816 65.864 372.784 65.128 371.248 63.656C369.744 62.152 368.992 60.216 368.992 57.848C368.992 55.032 370.032 52.872 372.112 51.368C374.192 49.864 377.2 49.112 381.136 49.112H383.344V48.248C383.344 46.872 383.056 45.944 382.48 45.464C381.904 44.952 380.864 44.696 379.36 44.696C378.56 44.696 377.552 44.824 376.336 45.08C375.152 45.304 373.936 45.624 372.688 46.04L370.816 40.52C372.352 39.88 374 39.4 375.76 39.08C377.52 38.728 379.152 38.552 380.656 38.552C384.496 38.552 387.296 39.32 389.056 40.856C390.816 42.36 391.696 44.68 391.696 47.816V57.128ZM379.936 59.864C380.64 59.864 381.28 59.688 381.856 59.336C382.464 58.952 382.96 58.44 383.344 57.8V53.672H381.904C380.368 53.672 379.232 53.96 378.496 54.536C377.76 55.08 377.392 55.912 377.392 57.032C377.392 57.896 377.616 58.584 378.064 59.096C378.512 59.608 379.136 59.864 379.936 59.864Z" fill="#141414"/>
<path d="M412.711 38.552C414.887 38.552 416.599 39.224 417.847 40.568C419.095 41.912 419.719 43.8 419.719 46.232V65H411.175V47.768C411.175 46.648 411.015 45.88 410.695 45.464C410.375 45.016 409.895 44.792 409.255 44.792C407.911 44.792 406.631 45.768 405.415 47.72V65H396.871V39.416H404.311L404.935 42.296C406.087 41.016 407.287 40.072 408.535 39.464C409.783 38.856 411.175 38.552 412.711 38.552Z" fill="#141414"/>
<path d="M445.482 31.64C450.762 31.64 455.002 32.84 458.202 35.24C461.402 37.608 463.002 41.928 463.002 48.2C463.002 59.4 457.386 65 446.154 65H435.498V31.64H445.482ZM444.378 37.976V58.664H446.682C449.114 58.664 450.906 57.896 452.058 56.36C453.242 54.824 453.834 52.104 453.834 48.2C453.834 45.512 453.546 43.432 452.97 41.96C452.426 40.456 451.626 39.416 450.57 38.84C449.546 38.264 448.234 37.976 446.634 37.976H444.378Z" fill="#141414"/>
<path d="M493.257 65H482.073L473.624 39.896L473.768 40.904C474.089 43.112 474.328 45.192 474.488 47.144C474.68 49.064 474.776 51.256 474.776 53.72V65H466.905V31.64H477.849L486.585 56.84C486.201 54.44 485.896 52.28 485.672 50.36C485.48 48.44 485.384 46.232 485.384 43.736V31.64H493.257V65Z" fill="#141414"/>
<path d="M515.971 65L514.483 58.184H505.651L504.163 65H494.947L504.835 31.64H515.491L525.379 65H515.971ZM507.043 51.848H513.091L510.067 37.976L507.043 51.848Z" fill="#141414"/>
</svg>
